<?xml version="1.0" standalone="no"?>
<!DOCTYPE svg PUBLIC "-//W3C//DTD SVG 20010904//EN"
 "http://www.w3.org/TR/2001/REC-SVG-20010904/DTD/svg10.dtd">
<svg version="1.0" xmlns="http://www.w3.org/2000/svg"
 width="598.000000pt" height="600.000000pt" viewBox="0 0 598.000000 600.000000"
 preserveAspectRatio="xMidYMid meet">
<metadata>
Created by potrace 1.15, written by Peter Selinger 2001-2017
</metadata>
<g transform="translate(0.000000,600.000000) scale(0.100000,-0.100000)"
fill="#000000" stroke="none">
<path d="M660 4780 l0 -560 560 0 560 0 0 560 0 560 -560 0 -560 0 0 -560z
m960 0 l0 -400 -400 0 -400 0 0 400 0 400 400 0 400 0 0 -400z"/>
<path d="M980 4780 l0 -240 240 0 240 0 0 240 0 240 -240 0 -240 0 0 -240z"/>
<path d="M2260 5180 l0 -160 80 0 80 0 0 160 0 160 -80 0 -80 0 0 -160z"/>
<path d="M2580 5260 l0 -80 80 0 80 0 0 -80 0 -80 -80 0 -80 0 0 -160 0 -160
560 0 560 0 0 -80 0 -80 80 0 80 0 0 -160 0 -160 80 0 80 0 0 160 0 160 -80 0
-80 0 0 80 0 80 80 0 80 0 0 160 0 160 -80 0 -80 0 0 -160 0 -160 -80 0 -80 0
0 80 0 80 -480 0 -480 0 0 80 0 80 80 0 80 0 0 80 0 80 -80 0 -80 0 0 80 0 80
-80 0 -80 0 0 -80z"/>
<path d="M3220 5260 l0 -80 -80 0 -80 0 0 -80 0 -80 80 0 80 0 0 80 0 80 80 0
80 0 0 -80 0 -80 80 0 80 0 0 80 0 80 -80 0 -80 0 0 80 0 80 -80 0 -80 0 0
-80z"/>
<path d="M3700 5260 l0 -80 80 0 80 0 0 80 0 80 -80 0 -80 0 0 -80z"/>
<path d="M4180 4780 l0 -560 560 0 560 0 0 560 0 560 -560 0 -560 0 0 -560z
m960 0 l0 -400 -400 0 -400 0 0 400 0 400 400 0 400 0 0 -400z"/>
<path d="M4500 4780 l0 -240 240 0 240 0 0 240 0 240 -240 0 -240 0 0 -240z"/>
<path d="M1940 5100 l0 -80 80 0 80 0 0 80 0 80 -80 0 -80 0 0 -80z"/>
<path d="M1940 4780 l0 -80 80 0 80 0 0 -80 0 -80 -80 0 -80 0 0 -160 0 -160
80 0 80 0 0 -80 0 -80 -240 0 -240 0 0 -80 0 -80 80 0 80 0 0 -80 0 -80 -240
0 -240 0 0 -80 0 -80 -240 0 -240 0 0 -80 0 -80 -80 0 -80 0 0 -80 0 -80 80 0
80 0 0 80 0 80 240 0 240 0 0 -240 0 -240 80 0 80 0 0 -80 0 -80 -160 0 -160
0 0 -240 0 -240 -80 0 -80 0 0 -80 0 -80 80 0 80 0 0 -80 0 -80 80 0 80 0 0
80 0 80 -80 0 -80 0 0 80 0 80 80 0 80 0 0 80 0 80 80 0 80 0 0 80 0 80 160 0
160 0 0 -80 0 -80 -80 0 -80 0 0 -80 0 -80 160 0 160 0 0 80 0 80 80 0 80 0 0
80 0 80 -160 0 -160 0 0 80 0 80 320 0 320 0 0 -80 0 -80 -80 0 -80 0 0 -160
0 -160 -80 0 -80 0 0 -160 0 -160 -80 0 -80 0 0 -160 0 -160 240 0 240 0 0
-80 0 -80 -80 0 -80 0 0 -80 0 -80 -80 0 -80 0 0 80 0 80 -80 0 -80 0 0 -400
0 -400 80 0 80 0 0 240 0 240 80 0 80 0 0 80 0 80 160 0 160 0 0 -80 0 -80 80
0 80 0 0 -80 0 -80 -80 0 -80 0 0 -160 0 -160 80 0 80 0 0 80 0 80 80 0 80 0
0 -80 0 -80 80 0 80 0 0 80 0 80 80 0 80 0 0 -80 0 -80 240 0 240 0 0 80 0 80
240 0 240 0 0 -80 0 -80 80 0 80 0 0 80 0 80 80 0 80 0 0 -80 0 -80 240 0 240
0 0 80 0 80 80 0 80 0 0 160 0 160 80 0 80 0 0 240 0 240 -80 0 -80 0 0 80 0
80 80 0 80 0 0 80 0 80 -80 0 -80 0 0 160 0 160 -80 0 -80 0 0 -80 0 -80 -160
0 -160 0 0 80 0 80 80 0 80 0 0 80 0 80 -80 0 -80 0 0 80 0 80 240 0 240 0 0
-80 0 -80 80 0 80 0 0 160 0 160 -80 0 -80 0 0 160 0 160 80 0 80 0 0 80 0 80
-80 0 -80 0 0 -80 0 -80 -160 0 -160 0 0 -80 0 -80 80 0 80 0 0 -80 0 -80
-160 0 -160 0 0 240 0 240 -80 0 -80 0 0 80 0 80 160 0 160 0 0 -80 0 -80 80
0 80 0 0 80 0 80 -80 0 -80 0 0 160 0 160 -80 0 -80 0 0 80 0 80 80 0 80 0 0
80 0 80 -80 0 -80 0 0 -80 0 -80 -80 0 -80 0 0 80 0 80 -80 0 -80 0 0 -80 0
-80 -80 0 -80 0 0 80 0 80 -160 0 -160 0 0 -80 0 -80 -80 0 -80 0 0 240 0 240
-80 0 -80 0 0 -160 0 -160 -160 0 -160 0 0 80 0 80 80 0 80 0 0 80 0 80 -80 0
-80 0 0 80 0 80 -80 0 -80 0 0 -80 0 -80 -80 0 -80 0 0 -160 0 -160 -80 0 -80
0 0 -80 0 -80 -80 0 -80 0 0 160 0 160 80 0 80 0 0 160 0 160 -160 0 -160 0 0
-80 0 -80 -80 0 -80 0 0 160 0 160 80 0 80 0 0 80 0 80 -240 0 -240 0 0 -80z
m320 -480 l0 -80 -80 0 -80 0 0 80 0 80 80 0 80 0 0 -80z m320 0 l0 -80 -80 0
-80 0 0 80 0 80 80 0 80 0 0 -80z m640 0 l0 -80 -80 0 -80 0 0 80 0 80 80 0
80 0 0 -80z m-800 -320 l0 -80 80 0 80 0 0 -80 0 -80 80 0 80 0 0 80 0 80 480
0 480 0 0 -80 0 -80 80 0 80 0 0 80 0 80 160 0 160 0 0 -80 0 -80 80 0 80 0 0
80 0 80 80 0 80 0 0 -80 0 -80 80 0 80 0 0 -80 0 -80 -160 0 -160 0 0 -160 0
-160 80 0 80 0 0 -80 0 -80 -80 0 -80 0 0 -80 0 -80 -80 0 -80 0 0 -80 0 -80
240 0 240 0 0 -80 0 -80 -240 0 -240 0 0 -80 0 -80 160 0 160 0 0 -80 0 -80
-80 0 -80 0 0 -80 0 -80 -160 0 -160 0 0 160 0 160 -80 0 -80 0 0 -240 0 -240
-80 0 -80 0 0 -160 0 -160 80 0 80 0 0 -240 0 -240 80 0 80 0 0 80 0 80 320 0
320 0 0 -80 0 -80 -320 0 -320 0 0 -80 0 -80 -160 0 -160 0 0 -80 0 -80 -240
0 -240 0 0 160 0 160 -160 0 -160 0 0 80 0 80 -160 0 -160 0 0 160 0 160 80 0
80 0 0 80 0 80 -320 0 -320 0 0 80 0 80 160 0 160 0 0 320 0 320 80 0 80 0 0
160 0 160 160 0 160 0 0 80 0 80 -240 0 -240 0 0 -80 0 -80 -80 0 -80 0 0 80
0 80 -80 0 -80 0 0 -80 0 -80 -160 0 -160 0 0 -80 0 -80 -80 0 -80 0 0 80 0
80 -80 0 -80 0 0 80 0 80 80 0 80 0 0 80 0 80 -80 0 -80 0 0 80 0 80 -80 0
-80 0 0 80 0 80 240 0 240 0 0 80 0 80 160 0 160 0 0 80 0 80 80 0 80 0 0 80
0 80 80 0 80 0 0 -80z m2080 -2240 l0 -240 -240 0 -240 0 0 240 0 240 240 0
240 0 0 -240z m640 160 l0 -80 -80 0 -80 0 0 -160 0 -160 -160 0 -160 0 0 160
0 160 80 0 80 0 0 80 0 80 160 0 160 0 0 -80z m-160 -800 l0 -240 -240 0 -240
0 0 80 0 80 160 0 160 0 0 160 0 160 80 0 80 0 0 -240z m-1920 -160 l0 -80
-80 0 -80 0 0 80 0 80 80 0 80 0 0 -80z m1280 0 l0 -80 -80 0 -80 0 0 80 0 80
80 0 80 0 0 -80z"/>
<path d="M2260 3740 l0 -160 80 0 80 0 0 160 0 160 -80 0 -80 0 0 -160z"/>
<path d="M2900 3660 l0 -80 160 0 160 0 0 -80 0 -80 -80 0 -80 0 0 -80 0 -80
-80 0 -80 0 0 80 0 80 -80 0 -80 0 0 80 0 80 -80 0 -80 0 0 -160 0 -160 160 0
160 0 0 -80 0 -80 80 0 80 0 0 -240 0 -240 -80 0 -80 0 0 80 0 80 -80 0 -80 0
0 -80 0 -80 -80 0 -80 0 0 -80 0 -80 80 0 80 0 0 -80 0 -80 -80 0 -80 0 0
-160 0 -160 160 0 160 0 0 -80 0 -80 80 0 80 0 0 -240 0 -240 80 0 80 0 0 -80
0 -80 80 0 80 0 0 80 0 80 80 0 80 0 0 -160 0 -160 80 0 80 0 0 160 0 160 -80
0 -80 0 0 80 0 80 -80 0 -80 0 0 -80 0 -80 -80 0 -80 0 0 160 0 160 80 0 80 0
0 160 0 160 160 0 160 0 0 80 0 80 -160 0 -160 0 0 80 0 80 -80 0 -80 0 0 80
0 80 -80 0 -80 0 0 80 0 80 240 0 240 0 0 -80 0 -80 160 0 160 0 0 80 0 80
160 0 160 0 0 80 0 80 -80 0 -80 0 0 80 0 80 80 0 80 0 0 80 0 80 80 0 80 0 0
80 0 80 -80 0 -80 0 0 80 0 80 -80 0 -80 0 0 160 0 160 -80 0 -80 0 0 -240 0
-240 -80 0 -80 0 0 240 0 240 -400 0 -400 0 0 -80z m640 -160 l0 -80 -80 0
-80 0 0 80 0 80 80 0 80 0 0 -80z m-160 -320 l0 -80 80 0 80 0 0 80 0 80 80 0
80 0 0 -80 0 -80 80 0 80 0 0 80 0 80 160 0 160 0 0 -80 0 -80 -80 0 -80 0 0
-80 0 -80 -160 0 -160 0 0 80 0 80 -80 0 -80 0 0 -160 0 -160 160 0 160 0 0
-80 0 -80 -160 0 -160 0 0 80 0 80 -80 0 -80 0 0 80 0 80 -80 0 -80 0 0 80 0
80 -80 0 -80 0 0 80 0 80 160 0 160 0 0 -80z m-480 -640 l0 -80 -80 0 -80 0 0
80 0 80 80 0 80 0 0 -80z m320 -320 l0 -80 80 0 80 0 0 -80 0 -80 -80 0 -80 0
0 -80 0 -80 -80 0 -80 0 0 80 0 80 -80 0 -80 0 0 80 0 80 -80 0 -80 0 0 80 0
80 240 0 240 0 0 -80z"/>
<path d="M3060 2060 l0 -80 80 0 80 0 0 80 0 80 -80 0 -80 0 0 -80z"/>
<path d="M1780 3500 l0 -80 -80 0 -80 0 0 -80 0 -80 80 0 80 0 0 80 0 80 80 0
80 0 0 80 0 80 -80 0 -80 0 0 -80z"/>
<path d="M2100 3340 l0 -80 -80 0 -80 0 0 -80 0 -80 80 0 80 0 0 80 0 80 160
0 160 0 0 80 0 80 -160 0 -160 0 0 -80z"/>
<path d="M1620 3020 l0 -80 80 0 80 0 0 80 0 80 -80 0 -80 0 0 -80z"/>
<path d="M4180 1740 l0 -80 80 0 80 0 0 80 0 80 -80 0 -80 0 0 -80z"/>
<path d="M660 3900 l0 -160 80 0 80 0 0 80 0 80 320 0 320 0 0 80 0 80 -400 0
-400 0 0 -160z"/>
<path d="M4980 3900 l0 -160 160 0 160 0 0 80 0 80 -80 0 -80 0 0 80 0 80 -80
0 -80 0 0 -160z"/>
<path d="M5140 3500 l0 -80 80 0 80 0 0 80 0 80 -80 0 -80 0 0 -80z"/>
<path d="M980 3180 l0 -80 80 0 80 0 0 80 0 80 -80 0 -80 0 0 -80z"/>
<path d="M660 2940 l0 -160 80 0 80 0 0 -80 0 -80 -80 0 -80 0 0 -320 0 -320
80 0 80 0 0 320 0 320 80 0 80 0 0 80 0 80 -80 0 -80 0 0 160 0 160 -80 0 -80
0 0 -160z"/>
<path d="M1620 2060 l0 -80 80 0 80 0 0 80 0 80 -80 0 -80 0 0 -80z"/>
<path d="M660 1260 l0 -560 560 0 560 0 0 560 0 560 -560 0 -560 0 0 -560z
m960 0 l0 -400 -400 0 -400 0 0 400 0 400 400 0 400 0 0 -400z"/>
<path d="M980 1260 l0 -240 240 0 240 0 0 240 0 240 -240 0 -240 0 0 -240z"/>
<path d="M2260 940 l0 -80 80 0 80 0 0 80 0 80 -80 0 -80 0 0 -80z"/>
<path d="M0 10 c0 -7 1003 -10 2990 -10 1987 0 2990 3 2990 10 0 7 -1003 10
-2990 10 -1987 0 -2990 -3 -2990 -10z"/>
</g>
</svg>
